{"title":"Drift 2013 BRRip AAC x264-SSDD [PublicHash]","uid":8543329,"size":524080463,"categoryP":"video","categoryS":"movies","magnet":"?xt=urn:btih:d8039c6ce5065bec10648c96fe164cf5fcd28be7&amp;dn=Drift+2013+BRRip+AAC+x264-SSDD+%5BPublicHash%5D&amp;tr=udp%3A%2F%2Ftracker.openbittorrent.com%3A80&amp;tr=udp%3A%2F%2Fopen.demonii.com%3A1337&amp;tr=udp%3A%2F%2Ftracker.coppersurfer.tk%3A6969&amp;tr=udp%3A%2F%2Fexodus.desync.com%3A6969","seeders":1,"leechers":0,"uploader":"R0thschild","files":2,"time":1370454196,"description":"              ***********************************************\n\n                PublicHash - Largest Bittorrent Community\n      \n                         &lt;a href=&quot; http://publichash.com/&quot; rel=&quot;nofollow&quot; target=&quot;_NEW&quot;&gt; http://publichash.com/&lt;/a&gt;\n    \n              ***********************************************\nDrift (II) (2013)\n-  Drama | Sport  -  2 May 2013 (Australia)\nIMDB Rating: 6.0\n\nIn the 70s two brothers battle killer waves, conservative society and ruthless bikers to kick-start the modern surf industry.\n\nDirectors : Ben Nott, Morgan O'Neill\nWriters : Tim Duffy (story), Morgan O'Neill (screenplay)\n &lt;a href=&quot;\nhttp://imgsure.com/?p=960938&quot; rel=&quot;nofollow&quot; target=&quot;_NEW&quot;&gt;\nhttp://imgsure.com/?p=960938&lt;/a&gt; &lt;a href=&quot;\nhttp://imgsure.com/?p=950257&quot; rel=&quot;nofollow&quot; target=&quot;_NEW&quot;&gt;\nhttp://imgsure.com/?p=950257&lt;/a&gt;\n\nSource - Drift.2013.480p.BRRip.XviD.AC3-PTpOWeR (Thumbs Up + Respect)\n\nGeneral\nComplete name                            : Drift 2013 BRRip AAC x264-SSDD.mp4\nFormat                                   : MPEG-4\nFormat profile                           : Base Media\nCodec ID                                 : isom\nFile size                                : 500 MiB\nDuration                                 : 1h 47mn\nOverall bit rate mode                    : Variable\nOverall bit rate                         : 650 Kbps\n\nVideo\nID                                       : 1\nFormat                                   : AVC\nFormat/Info                              : Advanced Video Codec\nFormat profile                           : &lt;a class=&quot;__cf_email__&quot; href=&quot;/cdn-cgi/l/email-protection&quot; data-cfemail=&quot;723a1b151a323e465c43&quot;&gt;[email&amp;#160;protected]&lt;/a&gt;&lt;script cf-hash='f9e31' type=&quot;text/javascript&quot;&gt;\n/* &lt;![CDATA[ */!function(){try{var t=&quot;currentScript&quot;in document?document.currentScript:function(){for(var t=document.getElementsByTagName(&quot;script&quot;),e=t.length;e--;)if(t[e].getAttribute(&quot;cf-hash&quot;))return t[e]}();if(t&amp;&amp;t.previousSibling){var e,r,n,i,c=t.previousSibling,a=c.getAttribute(&quot;data-cfemail&quot;);if(a){for(e=&quot;&quot;,r=parseInt(a.substr(0,2),16),n=2;a.length-n;n+=2)i=parseInt(a.substr(n,2),16)^r,e+=String.fromCharCode(i);e=document.createTextNode(e),c.parentNode.replaceChild(e,c)}}}catch(u){}}();/* ]]&gt; */&lt;/script&gt;\nFormat settings, CABAC                   : Yes\nFormat settings, ReFrames                : 4 frames\nCodec ID                                 : avc1\nCodec ID/Info                            : Advanced Video Coding\nDuration                                 : 1h 47mn\nBit rate                                 : 582 Kbps\nMaximum bit rate                         : 2 329 Kbps\nWidth                                    : 720 pixels\nHeight                                   : 304 pixels\nDisplay aspect ratio                     : 2.35:1\nFrame rate mode                          : Constant\nFrame rate                               : 24.000 fps\nColor space                              : YUV\nChroma subsampling                       : 4:2:0\nBit depth                                : 8 bits\nScan type                                : Progressive\nBits/(Pixel*Frame)                       : 0.111\nStream size                              : 448 MiB (90%)\nWriting library                          : x264 core 130 r2273 b3065e6\n\nAudio\nID                                       : 2\nFormat                                   : AAC\nFormat/Info                              : Advanced Audio Codec\nFormat profile                           : LC\nCodec ID                                 : 40\nDuration                                 : 1h 47mn\nBit rate mode                            : Variable\nBit rate                                 : 64.0 Kbps\nMaximum bit rate                         : 74.0 Kbps\nChannel(s)                               : 2 channels\nChannel positions                        : Front: L R\nSampling rate                            : 48.0 KHz\nCompression mode                         : Lossy\nStream size                              : 49.2 MiB (10%)\n\n\nIMDB Link - http://www.imdb.com/title/tt1714833/","torrent":{"xt":"urn:btih:d8039c6ce5065bec10648c96fe164cf5fcd28be7","amp;dn":"Drift+2013+BRRip+AAC+x264-SSDD+%5BPublicHash%5D","amp;tr":["udp%3A%2F%2Ftracker.openbittorrent.com%3A80","udp%3A%2F%2Fopen.demonii.com%3A1337","udp%3A%2F%2Ftracker.coppersurfer.tk%3A6969","udp%3A%2F%2Fexodus.desync.com%3A6969"],"infoHash":"d8039c6ce5065bec10648c96fe164cf5fcd28be7","infoHashBuffer":{"type":"Buffer","data":[216,3,156,108,229,6,91,236,16,100,140,150,254,22,76,245,252,210,139,231]},"announce":[],"urlList":[]}}